HIERARCHY
ROOT Hips
{
  OFFSET 196.326 95.9168 97.7182
  CHANNELS 6 Xposition Yposition Zposition Zrotation Xrotation Yrotation
  JOINT LeftUpLeg
  {
    OFFSET 8.64259 1.95398 -2.38835
    CHANNELS 3 Zrotation Xrotation Yrotation
    JOINT LeftLeg
    {
      OFFSET 43.7702 0 0
      CHANNELS 3 Zrotation Xrotation Yrotation
      JOINT LeftFoot
      {
        OFFSET 40.6238 0 0
        CHANNELS 3 Zrotation Xrotation Yrotation
        JOINT LeftToeBase
        {
          OFFSET 12.7242 0 0
          CHANNELS 3 Zrotation Xrotation Yrotation
          End Site
          {
            OFFSET 0 0 0
          }
        }
      }
    }
  }
  JOINT RightUpLeg
  {
    OFFSET -8.2249 1.95398 -2.59336
    CHANNELS 3 Zrotation Xrotation Yrotation
    JOINT RightLeg
    {
      OFFSET 43.5653 0 0
      CHANNELS 3 Zrotation Xrotation Yrotation
      JOINT RightFoot
      {
        OFFSET 40.6238 0 0
        CHANNELS 3 Zrotation Xrotation Yrotation
        JOINT RightToeBase
        {
          OFFSET 12.7242 0 0
          CHANNELS 3 Zrotation Xrotation Yrotation
          End Site
          {
            OFFSET 0 0 0
          }
        }
      }
    }
  }
  JOINT Spine
  {
    OFFSET 0.165834 0.87714 6.61349
    CHANNELS 3 Zrotation Xrotation Yrotation
    JOINT Spine1
    {
      OFFSET 7.38963 1.71661e-005 0
      CHANNELS 3 Zrotation Xrotation Yrotation
      JOINT Spine2
      {
        OFFSET 11.9445 1.14441e-005 0
        CHANNELS 3 Zrotation Xrotation Yrotation
        JOINT Spine3
        {
          OFFSET 14.7254 4.19617e-005 0
          CHANNELS 3 Zrotation Xrotation Yrotation
          JOINT Spine4
          {
            OFFSET 10.9679 0 0
            CHANNELS 3 Zrotation Xrotation Yrotation
            JOINT RightShoulder
            {
              OFFSET 2.46616 -1.6653 3.69651
              CHANNELS 3 Zrotation Xrotation Yrotation
              JOINT RightArm
              {
                OFFSET 13.0012 0 0
                CHANNELS 3 Zrotation Xrotation Yrotation
                JOINT RightForeArm
                {
                  OFFSET 28.7848 1.52588e-005 0
                  CHANNELS 3 Zrotation Xrotation Yrotation
                  JOINT RightHand
                  {
                    OFFSET 26.5688 1.52588e-005 0
                    CHANNELS 3 Zrotation Xrotation Yrotation
                    End Site
                    {
                      OFFSET 0 0 0
                    }
                  }
                }
              }
            }
            JOINT LeftShoulder
            {
              OFFSET 2.38034 -1.29275 -3.75231
              CHANNELS 3 Zrotation Xrotation Yrotation
              JOINT LeftArm
              {
                OFFSET 16.3182 6.10351e-005 0
                CHANNELS 3 Zrotation Xrotation Yrotation
                JOINT LeftForeArm
                {
                  OFFSET 27.0901 0 0
                  CHANNELS 3 Zrotation Xrotation Yrotation
                  JOINT LeftHand
                  {
                    OFFSET 24.5451 1.52588e-005 0
                    CHANNELS 3 Zrotation Xrotation Yrotation
                    End Site
                    {
                      OFFSET 0 0 0
                    }
                  }
                }
              }
            }
            JOINT Neck
            {
              OFFSET 5.0226 -0.0266342 0
              CHANNELS 3 Zrotation Xrotation Yrotation
              JOINT Head
              {
                OFFSET 6.69363 2.86102e-005 0
                CHANNELS 3 Zrotation Xrotation Yrotation
                End Site
                {
                  OFFSET 0 0 0
                }
              }
            }
          }
        }
      }
    }
  }
}
MOTION
Frames:	13
Frame Time:	0.0416667
-55.1109 97.0731 32.1395 -13.7846 -87.1918 -14.0277 -171.795 7.21306 91.578 -6.45437 5.39811 -0.673554 57.644 4.07558 14.5579 37.057 7.98299 -32.7011 177.826 7.46932 89.0963 -11.7816 8.59094 -0.528111 64.5786 -1.61999 -0.841607 29.4522 -0.987691 17.8144 -0.0228631 6.80146 -90.1197 13.2708 -0.103089 -0.226617 1.59985 -0.112951 -0.221866 -20.9352 -0.0302176 -0.247128 -0.92251 -0.0302076 -0.247116 80.7739 -50.3322 -114.619 26.4669 -10.5797 4.99753 -3.82563 -12.726 -37.0299 -7.22876 -0.717223 5.87521 -103.388 -42.9626 56.0278 -29.2379 12.1854 1.59518 2.93405 11.7894 -29.7221 13.0272 1.31555 6.0018 8.16677 3.10637 5.25957 -8.74765 1.86895 3.96637 
-55.0811 97.156 32.1789 -14.993 -87.2337 -15.283 -171.671 7.17436 91.5913 -6.39994 4.62373 -0.760264 57.2039 3.54331 14.2755 39.1002 9.09514 -35.366 177.568 7.98048 88.9727 -12.7271 9.23521 -0.273228 63.7031 -1.35878 -0.682609 31.125 -0.671598 18.983 -0.01366 6.81495 -90.1303 13.2438 -0.0898994 -0.249422 1.5728 -0.100792 -0.245227 -20.9622 -0.0107834 -0.264911 -0.949512 -0.0107847 -0.26491 81.0271 -49.9556 -114.388 26.687 -10.5737 4.89974 -3.19898 -13.2331 -36.498 -8.35779 -0.812161 5.869 -103.578 -42.9431 55.7306 -29.3648 12.0178 1.49676 2.99501 11.7749 -29.5999 12.5459 1.23346 5.71775 9.04651 4.43714 4.93411 -7.17157 3.25735 3.59368 
-55.055 97.1174 32.2346 -16.3189 -87.1905 -16.6652 -171.707 7.16258 91.5261 -6.41227 4.50939 -0.742085 57.1077 3.50953 14.3865 39.4335 9.24749 -36.1036 177.522 7.75591 88.9019 -12.4144 8.77241 -0.291745 64.386 -1.61989 -0.839894 30.1757 -0.873984 18.6666 0.000284646 6.80918 -90.1121 13.2554 -0.0534687 -0.217691 1.58446 -0.0629961 -0.215133 -20.9505 0.0144242 -0.223703 -0.937901 0.0144323 -0.223691 80.9216 -50.0331 -114.515 26.7208 -10.5132 5.03507 -3.42175 -12.9904 -36.6003 -8.24245 -0.801186 5.85277 -103.485 -42.7948 55.8006 -29.2426 12.2548 1.31141 2.77583 11.7359 -29.3572 12.7273 1.23675 5.61803 9.70122 4.11471 4.87853 -7.34087 2.91867 3.25789 
-55.0189 97.1073 32.2916 -16.7991 -87.1528 -17.0944 -171.567 7.12529 91.5766 -6.44059 4.17974 -0.834413 57.5109 3.60948 13.6351 38.4985 8.80571 -34.1014 177.527 7.69759 88.9195 -12.3022 8.74995 -0.285109 64.5205 -1.64112 -0.852026 29.8323 -0.956553 18.7548 0.0013874 6.79638 -90.1226 13.281 -0.0563505 -0.238199 1.61004 -0.0667757 -0.235489 -20.9249 0.0178391 -0.244119 -0.912294 0.0178429 -0.24412 81.0196 -50.0594 -114.36 26.614 -10.6247 5.00537 -3.22561 -12.888 -36.6377 -8.5212 -0.82191 5.81824 -103.506 -42.8477 55.7941 -29.0424 12.4875 1.30178 2.57388 11.4978 -29.3761 12.9055 1.25261 5.62017 9.76072 4.13006 4.95415 -7.18812 2.91911 3.05505 
-55.0105 97.1145 32.344 -16.6292 -87.1353 -16.8976 -171.463 7.14609 91.6374 -6.44105 4.66998 -0.971838 57.5169 3.94146 14.461 37.8545 8.3823 -35.0229 177.421 7.79897 88.8903 -12.5747 8.38743 -0.195596 64.3823 -1.63085 -0.844069 30.4359 -0.77147 17.8337 -0.00407377 6.77688 -90.1286 13.32 -0.0701494 -0.248571 1.64903 -0.0810199 -0.245241 -20.8859 0.0077936 -0.258161 -0.873296 0.00779113 -0.258169 81.086 -50.0451 -114.266 26.7623 -10.58 5.07895 -3.46163 -13.0067 -36.7624 -8.24621 -0.811961 6.02248 -103.585 -42.9204 55.71 -29.0226 12.4753 1.31941 2.52778 11.5086 -29.2721 13.1358 1.29761 5.79803 9.68595 4.20534 4.79899 -7.35395 3.02465 3.39001 
-54.9506 97.094 32.3971 -14.3161 -87.1414 -14.4677 -171.456 7.14711 91.7174 -6.41784 4.62303 -0.936473 57.4869 3.76055 14.1099 38.659 8.85878 -34.9413 177.493 7.77844 88.994 -12.5693 8.70163 -0.230922 64.6987 -1.80684 -0.949106 30.0831 -0.890237 18.5991 -0.0121714 6.77959 -90.1553 13.3144 -0.0991008 -0.298349 1.64346 -0.112129 -0.293709 -20.8914 -0.00485454 -0.314338 -0.878766 -0.00485621 -0.314347 81.1268 -49.9045 -114.259 26.8035 -10.5311 5.08902 -3.38793 -12.8962 -36.7792 -8.45276 -0.812382 5.75577 -103.848 -43.1391 55.4147 -28.7349 12.4139 1.32466 2.69997 11.7038 -29.4321 12.7797 1.2444 5.64184 9.86771 4.29282 5.24936 -7.58255 2.996 3.07097 
-54.9067 97.0913 32.4095 -10.2766 -87.199 -10.3398 -171.431 7.15511 91.74 -6.45533 4.56545 -0.929307 57.8094 4.08002 14.1154 37.7182 8.29597 -35.1808 177.47 7.74907 89.0418 -12.6178 8.88212 -0.183486 64.6029 -1.79992 -0.944994 30.321 -0.836522 18.5938 -0.0336377 6.79568 -90.1644 13.2822 -0.146029 -0.310586 1.61123 -0.159554 -0.303863 -20.9236 -0.0459368 -0.340115 -0.910998 -0.0459387 -0.34012 80.9702 -49.9008 -114.494 26.7098 -10.5992 4.99886 -3.23761 -13.0408 -36.6347 -8.71139 -0.836704 5.79452 -103.919 -43.0903 55.2835 -28.7591 12.3821 1.29777 2.78668 11.839 -29.4678 12.9493 1.25403 5.60118 9.71495 4.22631 5.072 -7.45867 2.98016 3.3245 
-54.8842 97.0976 32.5156 -10.5806 -87.1666 -10.705 -171.456 7.10907 91.7133 -6.41119 4.55712 -0.924936 57.5864 3.85871 14.1436 38.8458 8.91873 -35.9484 177.516 7.76625 89.0032 -12.6752 8.8975 -0.273409 64.5385 -1.7782 -0.931696 30.5022 -0.799109 18.6816 -0.0362316 6.80874 -90.1461 13.2562 -0.142311 -0.274508 1.58518 -0.154257 -0.267985 -20.9497 -0.0532402 -0.304592 -0.937102 -0.0532326 -0.304594 81.1631 -49.8055 -114.243 26.9032 -10.8901 4.75843 -3.47306 -13.354 -36.5088 -9.10213 -0.856199 5.59422 -103.709 -43.0218 55.569 -28.7997 12.5116 1.12468 2.65523 11.6978 -29.4198 13.173 1.24947 5.4237 9.20067 4.13492 4.95442 -7.35097 2.94415 3.37092 
-54.8662 97.0876 32.6061 -12.6544 -87.1008 -12.8192 -171.468 7.04978 91.6149 -6.38936 4.48744 -0.927186 57.8017 4.13502 14.3949 37.8501 8.35658 -35.62 177.481 7.72141 88.9587 -12.7001 8.3681 -0.28719 64.8634 -1.89659 -1.0001 30.3157 -0.809468 18.0564 -0.0335257 6.82459 -90.1297 13.2245 -0.129031 -0.243437 1.55354 -0.139614 -0.237534 -20.9815 -0.0498986 -0.270959 -0.968799 -0.0499009 -0.270963 80.9971 -49.8997 -114.454 26.7131 -10.9821 4.72418 -3.44423 -13.1946 -36.5589 -8.84964 -0.838426 5.63877 -103.805 -43.0661 55.4441 -28.8286 12.4594 1.23156 2.60585 11.4136 -29.5388 13.2965 1.27253 5.51219 7.96603 4.04219 5.25433 -7.67743 2.84446 2.90768 
-54.8985 97.1048 32.5697 -14.0235 -87.1175 -14.1698 -171.468 7.12123 91.682 -6.44439 4.68292 -0.924262 57.1305 3.73551 14.8143 40.2201 9.65964 -36.7243 177.538 8.06482 89.0101 -13.2179 8.76633 -0.310696 64.2504 -1.68884 -0.877786 31.3228 -0.624371 18.9678 -0.0298367 6.87641 -90.1278 13.1209 -0.120657 -0.240626 1.44991 -0.131129 -0.235089 -21.0851 -0.0427588 -0.265759 -1.07244 -0.0427652 -0.265776 80.9468 -50.0802 -114.459 26.3053 -10.9603 4.50945 -3.14271 -12.8752 -36.8 -9.04345 -0.835511 5.37819 -104.167 -43.1706 54.947 -28.5028 12.5935 1.23066 2.52922 11.3154 -29.6467 13.4274 1.29012 5.55535 6.16144 4.10685 4.81177 -10.3787 2.98419 3.88842 
-55.0327 97.0649 32.3796 -24.2174 -87.191 -24.4429 -171.327 7.08163 91.7506 -6.67254 4.1879 -0.998373 57.0562 3.7983 14.6739 40.5251 9.81538 -36.9891 177.76 8.29074 89.1363 -13.8017 8.60112 -0.546454 64.5351 -1.79811 -0.941904 31.1293 -0.674818 19.1162 -0.0250462 6.98136 -90.0692 12.9111 -0.0828224 -0.128154 1.2402 -0.0883811 -0.124386 -21.2949 -0.0404874 -0.147123 -1.28227 -0.0404775 -0.147119 80.776 -50.2559 -114.645 26.1301 -10.9413 4.04231 -3.22319 -12.7061 -37.0129 -8.82941 -0.811521 5.27857 -103.973 -43.0495 55.1828 -28.3321 12.4286 1.13906 2.69738 11.3917 -29.8256 13.5008 1.31391 5.67923 3.35769 4.33562 4.41216 -14.5205 3.25646 3.99088 
-54.9741 97.0208 32.341 -32.9947 -86.6838 -32.896 -171.324 7.37088 91.9598 -6.85625 3.35571 -0.845737 57.1208 3.93318 14.4816 40.8672 9.94986 -37.7909 177.928 8.56635 89.4437 -13.7346 8.2782 -0.518911 64.6096 -1.92468 -1.01813 30.8111 -0.763385 19.4187 0.00567572 7.07638 -90.088 12.721 -0.0307404 -0.172445 1.05008 -0.0382885 -0.170928 -21.485 0.022507 -0.173709 -1.47234 0.0225182 -0.173704 80.6931 -50.2701 -114.762 25.7373 -11.0086 3.70141 -3.36537 -12.384 -37.8919 -8.66991 -0.783749 5.05873 -104.384 -43.3472 54.7057 -27.71 12.1695 1.01226 2.79029 11.1232 -30.0933 13.4218 1.32044 5.77611 -1.1083 4.1818 5.0246 -15.9411 3.19947 3.68381 
-55.1055 96.991 32.1555 -34.4051 -86.2014 -34.0441 -171.113 7.93511 92.2878 -6.96688 3.4446 -0.986492 57.1482 4.11637 14.6136 40.0827 9.53437 -37.4734 178.282 9.06359 89.861 -13.6977 8.2815 -0.614679 64.2855 -1.90592 -1.00971 31.1793 -0.641086 18.6096 -0.0466739 7.18662 -90.0376 12.5006 -0.110597 -0.0622877 0.829682 -0.113222 -0.0573707 -21.7055 -0.0867533 -0.0926431 -1.69284 -0.0867687 -0.0926601 80.0668 -50.5941 -115.558 25.3437 -11.4196 3.36816 -3.37374 -12.1487 -38.7014 -9.25953 -0.808186 4.76635 -103.808 -43.1801 55.4947 -27.3914 12.2726 0.757594 2.70202 10.9274 -30.2818 13.5967 1.37151 6.02533 -5.09833 4.66348 5.07725 -16.521 3.78359 4.39869 
